<svg width="42" height="44" viewBox="0 0 42 44" fill="none" xmlns="http://www.w3.org/2000/svg">
<path d="M22.8194 13.8709L22.9033 14.3236L23.2373 14.0066L32.3768 5.33422L26.953 16.7063L26.7549 17.1219L27.2113 17.0618L39.7028 15.4177L28.6306 21.4299L28.226 21.6496L28.6306 21.8693L39.7028 27.8816L27.2113 26.2375L26.7549 26.1774L26.953 26.593L32.3768 37.965L23.2373 29.2926L22.9033 28.9757L22.8194 29.4284L20.5229 41.8166L18.2264 29.4284L18.1425 28.9757L17.8086 29.2926L8.66908 37.965L14.0928 26.593L14.291 26.1774L13.8345 26.2375L1.343 27.8816L12.4152 21.8693L12.8198 21.6496L12.4152 21.4299L1.343 15.4177L13.8345 17.0618L14.291 17.1219L14.0928 16.7063L8.66908 5.33422L17.8086 14.0066L18.1425 14.3236L18.2264 13.8709L20.5229 1.48267L22.8194 13.8709Z" stroke="black" stroke-width="0.5"/>
</svg>
