<svg width="70" height="73" viewBox="0 0 70 73" fill="none" xmlns="http://www.w3.org/2000/svg">
<path d="M38.959 23.8996L39.1269 24.805L39.7948 24.1712L54.7627 9.96818L45.8802 28.5925L45.4838 29.4236L46.3968 29.3035L66.8544 26.6109L48.7212 36.4573L47.912 36.8967L48.7212 37.3361L66.8544 47.1824L46.3968 44.4899L45.4838 44.3697L45.8802 45.2008L54.7627 63.8251L39.7948 49.6221L39.1269 48.9883L38.959 49.8937L35.1981 70.1821L31.4371 49.8937L31.2692 48.9883L30.6013 49.6221L15.6334 63.8251L24.5159 45.2008L24.9123 44.3697L23.9994 44.4899L3.54171 47.1824L21.6749 37.3361L22.4841 36.8967L21.6749 36.4573L3.54172 26.6109L23.9994 29.3035L24.9123 29.4236L24.5159 28.5925L15.6334 9.96818L30.6013 24.1712L31.2692 24.805L31.4371 23.8996L35.1981 3.61121L38.959 23.8996Z" stroke="black"/>
</svg>
