<svg width="42" height="44" viewBox="0 0 42 44" fill="none" xmlns="http://www.w3.org/2000/svg">
<path d="M23.7579 14.0221L23.8418 14.4748L24.1758 14.1579L33.3152 5.48546L27.8915 16.8575L27.6933 17.2731L28.1498 17.213L40.6413 15.5689L29.5691 21.5812L29.1645 21.8009L29.5691 22.0206L40.6413 28.0328L28.1498 26.3887L27.6933 26.3286L27.8915 26.7442L33.3152 38.1163L24.1758 29.4439L23.8418 29.1269L23.7579 29.5796L21.4614 41.9678L19.1649 29.5796L19.081 29.1269L18.747 29.4439L9.60756 38.1163L15.0313 26.7442L15.2295 26.3286L14.773 26.3887L2.28148 28.0328L13.3537 22.0206L13.7583 21.8009L13.3537 21.5812L2.28148 15.5689L14.773 17.213L15.2295 17.2731L15.0313 16.8575L9.60756 5.48546L18.747 14.1579L19.081 14.4748L19.1649 14.0221L21.4614 1.63391L23.7579 14.0221Z" stroke="black" stroke-width="0.5"/>
</svg>
