<svg width="150" height="128" viewBox="0 0 150 128" fill="none" xmlns="http://www.w3.org/2000/svg">
<path d="M1.81772 126.036C1.81772 114.147 1.17087 102.071 1.86883 90.2056C2.31302 82.6545 5.97684 68.7341 11.9893 63.4732C17.9186 58.2851 24.4879 56.8192 32.1792 57.0329C39.7498 57.2432 45.3304 69.333 47.82 75.2293C50.5587 81.7157 51.6811 90.9582 45.0598 95.2147C36.9905 100.402 30.897 90.9023 30.3902 82.7941C29.6479 70.9167 30.8367 57.8642 39.744 48.9569C47.4195 41.2814 57.8854 32.4053 68.981 30.556C79.9273 28.7316 88.3192 30.3263 95.6112 38.5297C97.9216 41.129 103.006 48.7399 97.9113 50.5926C81.8005 56.451 81.8172 36.3564 84.4173 25.9558C86.0863 19.2797 92.1202 8.66882 98.3713 5.15256C105.058 1.39113 114.468 1.83018 121.832 1.83018C126.651 1.83018 134.341 3.90955 137.984 7.35045C141.025 10.2223 144.647 15.7421 148.105 17.4709" stroke="#BCA84F" stroke-width="3" stroke-linecap="round"/>
</svg>
