<svg width="70" height="73" viewBox="0 0 70 73" fill="none" xmlns="http://www.w3.org/2000/svg">
<path d="M38.7713 23.2956L38.9391 24.201L39.6071 23.5672L54.575 9.36418L45.6925 27.9885L45.2961 28.8196L46.209 28.6995L66.6667 26.0069L48.5334 35.8533L47.7242 36.2927L48.5334 36.7321L66.6667 46.5784L46.209 43.8859L45.2961 43.7657L45.6925 44.5968L54.575 63.2211L39.6071 49.0181L38.9391 48.3843L38.7713 49.2897L35.0103 69.5781L31.2493 49.2897L31.0815 48.3843L30.4135 49.0181L15.4456 63.2211L24.3282 44.5968L24.7245 43.7657L23.8116 43.8859L3.35397 46.5784L21.4872 36.7321L22.2964 36.2927L21.4872 35.8533L3.35397 26.0069L23.8116 28.6995L24.7245 28.8196L24.3282 27.9885L15.4456 9.36417L30.4135 23.5672L31.0815 24.201L31.2493 23.2956L35.0103 3.00721L38.7713 23.2956Z" stroke="black"/>
</svg>
