<svg width="41" height="45" viewBox="0 0 41 45" fill="none" xmlns="http://www.w3.org/2000/svg">
<path d="M22.7959 14.7222L22.8799 15.1749L23.2138 14.858L32.3533 6.1856L26.9296 17.5577L26.7314 17.9732L27.1879 17.9132L39.6794 16.2691L28.6072 22.2813L28.2026 22.501L28.6072 22.7207L39.6794 28.7329L27.1879 27.0889L26.7314 27.0288L26.9296 27.4443L32.3533 38.8164L23.2138 30.144L22.8799 29.8271L22.7959 30.2798L20.4995 42.668L18.203 30.2798L18.1191 29.8271L17.7851 30.144L8.64564 38.8164L14.0694 27.4443L14.2675 27.0288L13.8111 27.0889L1.31957 28.7329L12.3918 22.7207L12.7964 22.501L12.3918 22.2813L1.31957 16.2691L13.8111 17.9132L14.2675 17.9732L14.0694 17.5577L8.64564 6.1856L17.7851 14.858L18.1191 15.1749L18.203 14.7222L20.4995 2.33405L22.7959 14.7222Z" stroke="black" stroke-width="0.5"/>
</svg>
